<?xml version="1.0" encoding="UTF-8"?>
<svg xmlns="http://www.w3.org/2000/svg" width="20" height="20" viewBox="0 0 20 20" fill="none">
  <path d="M14.5832 9.99998C17.1145 9.99998 19.1665 7.94795 19.1665 5.41665C19.1665 2.88534 17.1145 0.833313 14.5832 0.833313C12.0519 0.833313 9.99984 2.88534 9.99984 5.41665C9.99984 6.14983 10.172 6.84281 10.4781 7.45736C10.5594 7.62068 10.5865 7.80734 10.5393 7.98359L10.2664 9.00386C10.1479 9.44676 10.5531 9.85196 10.996 9.73345L12.0162 9.46047C12.1925 9.41331 12.3791 9.44038 12.5425 9.52173C13.157 9.82782 13.85 9.99998 14.5832 9.99998Z" stroke="white" stroke-width="1.5"></path>
  <path d="M6.36795 5.70649L6.96288 6.77251C7.49977 7.73453 7.28425 8.99655 6.43865 9.84215C6.43865 9.84215 6.43865 9.84215 6.43864 9.84215C6.43853 9.84227 5.41306 10.868 7.27263 12.7275C9.13155 14.5864 10.1572 13.5623 10.158 13.5615C10.158 13.5615 10.158 13.5615 10.158 13.5615C11.0036 12.7159 12.2656 12.5004 13.2277 13.0373L14.2937 13.6322C15.7463 14.4429 15.9179 16.4801 14.641 17.757C13.8738 18.5243 12.9339 19.1213 11.8948 19.1607C10.1457 19.227 7.17525 18.7843 4.19556 15.8046C1.21586 12.8249 0.773193 9.85446 0.839502 8.10533C0.878891 7.0663 1.4759 6.12638 2.24315 5.35913C3.52002 4.08226 5.55724 4.25382 6.36795 5.70649Z" stroke="white" stroke-width="1.5" stroke-linecap="round"></path>
</svg>
