<?xml version="1.0" encoding="UTF-8"?>
<svg xmlns="http://www.w3.org/2000/svg" width="62" height="32" viewBox="0 0 62 32" fill="none">
  <path d="M0.722656 0.667725H8.19064L12.4988 19.7001H12.5709V0.667725H18.818V31.552H11.4939L7.04192 12.4762H6.9698V31.552H0.722656V0.667725ZM22.0513 0.667725H32.1408C36.916 0.667725 39.1418 3.7387 39.1418 8.36666C39.1418 11.6539 37.9565 14.5959 35.1208 15.2871V15.3735C38.4957 15.7625 39.8604 19.2234 39.8604 22.4238C39.8604 27.7877 37.7063 31.5507 32.1408 31.5507H22.0513V0.667725ZM28.7294 12.7793H30.3456C31.7098 12.7793 32.4641 11.3087 32.4641 9.66486C32.4641 7.93464 31.7098 6.46407 30.3456 6.46407H28.7294V12.7793ZM28.7294 25.7557H30.5967C31.8176 25.7557 32.9663 24.4579 32.9663 21.9488C32.9663 19.5699 31.8172 18.2291 30.5967 18.2291H28.7294V25.7557ZM46.5068 0.667725H54.9084L61.1556 31.552H54.046L53.3639 26.1451H48.0504L47.3687 31.552H40.2583L46.5068 0.667725ZM50.7428 6.98291H50.6715L48.8403 20.0896H52.574L50.7428 6.98291Z" fill="#A5A5A5"></path>
</svg>
