<?xml version="1.0" encoding="UTF-8"?>
<svg xmlns="http://www.w3.org/2000/svg" width="130" height="30" viewBox="0 0 130 30" fill="none">
  <path d="M70.2101 10.152H73.0966V18.1795C73.0966 22.2542 70.8504 24.5914 66.9375 24.5914C63.0652 24.5914 60.8394 22.2949 60.8394 18.2913V10.1622H63.7258V18.1998C63.7258 20.5776 64.8946 21.8478 66.9782 21.8478C69.0617 21.8478 70.2101 20.6081 70.2101 18.3015V10.152ZM53.9485 15.883H47.4235V10.152H44.5371V24.378H47.4235V18.5961H53.9384V24.378H56.8248V10.152H53.9384V15.883H53.9485ZM126.231 10.152V24.3576H129.077V10.152H126.231ZM114.899 18.2506H120.154V15.6595H114.899V12.7432H122.522V10.1622H112.053V24.3678H122.796V21.7767H114.899V18.2506ZM103.577 19.9273L100.345 10.1418H97.987L94.755 19.9273L91.6145 10.152H88.5451L93.5049 24.3678H95.8933L99.1253 15.0295L102.357 24.3678H104.766L109.716 10.152H106.717L103.577 19.9273ZM83.4125 10.2333L89.6225 24.3678H86.5937L85.3131 21.4108H78.7983L78.7068 21.6141L77.5075 24.3678H74.5601L80.831 10.152H83.3516L83.4125 10.2333ZM84.1037 18.5047L82.0506 13.739L80.0078 18.5047L79.8655 18.8298H84.2358L84.1037 18.5047Z" fill="#A5A5A5"></path>
  <path d="M16.1198 22.8639C16.1604 22.8334 16.1706 22.7725 16.1503 22.7216C13.3478 16.6993 9.85155 11.0247 5.73266 5.81307C5.73266 5.81307 2.46001 8.92246 2.69377 12.042C2.74852 12.7612 2.94457 13.4626 3.27069 14.106C3.59681 14.7493 4.0466 15.3221 4.59434 15.7916C7.45029 18.5758 14.3615 22.0916 15.9673 22.8944C16.0181 22.9147 16.0791 22.9046 16.1198 22.8639ZM15.0526 25.2417C15.0323 25.1807 14.9713 25.1401 14.9001 25.1401L3.39505 25.5364C4.64516 27.7617 6.74901 29.4891 8.93417 28.9607C10.4485 28.5848 13.8635 26.1968 14.9916 25.3839C15.0831 25.3128 15.0526 25.2518 15.0526 25.2417ZM15.2254 24.2154C15.2864 24.1239 15.1847 24.0426 15.1847 24.0426C10.1335 20.6284 0.335831 15.3851 0.335831 15.3851C0.0110852 16.3803 -0.0797605 17.4369 0.0703544 18.4729C0.220469 19.5089 0.607502 20.4963 1.20137 21.3584C1.79524 22.2205 2.57995 22.9341 3.49451 23.4437C4.40907 23.9533 5.42885 24.2452 6.47459 24.2967C6.64737 24.3271 13.3146 24.2967 15.1034 24.2865C15.1542 24.2763 15.1949 24.256 15.2254 24.2154ZM15.9876 0.844146C15.4896 0.884791 14.1379 1.19979 14.1379 1.19979C11.0888 1.98222 10.3672 4.75629 10.3672 4.75629C9.80823 6.49389 10.3774 8.41439 10.3774 8.41439C11.3937 12.9261 16.3942 20.354 17.4715 21.9087C17.5427 21.99 17.6036 21.9595 17.6036 21.9595C17.6646 21.9392 17.7154 21.8884 17.7154 21.8173C19.3823 5.23387 15.9876 0.844146 15.9876 0.844146ZM19.799 21.9392C19.8599 21.9595 19.9311 21.9392 19.9616 21.8783C21.0694 20.2829 26.0394 12.8956 27.0557 8.40423C27.0557 8.40423 27.6045 6.22969 27.076 4.74612C27.076 4.74612 26.3239 1.93142 23.2749 1.18963C23.2749 1.18963 22.4008 0.966083 21.4658 0.833984C21.4658 0.833984 18.0508 5.22371 19.7177 21.8071C19.7075 21.8681 19.7481 21.9189 19.799 21.9392ZM22.5228 25.1502C22.4957 25.1557 22.47 25.1666 22.4473 25.1823C22.4246 25.1981 22.4053 25.2183 22.3907 25.2417C22.3805 25.3026 22.3907 25.3534 22.4313 25.3941C23.529 26.1867 26.8728 28.5238 28.4786 28.9709C28.4786 28.9709 31.4565 29.987 34.038 25.5465L22.5228 25.1502ZM37.1074 15.3648C37.1074 15.3648 27.3301 20.6182 22.2687 24.0325C22.2179 24.0731 22.1874 24.1341 22.2077 24.195C22.2077 24.195 22.2585 24.2865 22.3297 24.2865C24.1388 24.2865 30.989 24.2967 31.1719 24.2662C31.8529 24.2154 32.5237 24.063 33.1538 23.8089C33.1538 23.8089 35.5931 23.0366 36.8533 20.2626C36.8533 20.2626 37.9815 18.0068 37.1074 15.3648ZM21.3438 22.8639C21.3845 22.8944 21.4455 22.9046 21.4963 22.8741C23.1428 22.051 30.0031 18.5656 32.8388 15.7916C32.8388 15.7916 34.6377 14.3486 34.7292 12.0217C34.9324 8.80052 31.6903 5.81307 31.6903 5.81307C31.6903 5.81307 25.6938 13.0785 21.293 22.681C21.2859 22.7133 21.2869 22.7469 21.2957 22.7787C21.3046 22.8106 21.3211 22.8399 21.3438 22.8639Z" fill="#A5A5A5"></path>
</svg>
