<?xml version="1.0" encoding="UTF-8"?>
<svg xmlns="http://www.w3.org/2000/svg" width="34" height="34" viewBox="0 0 34 34" fill="none">
  <path d="M1 17.0418C1 25.2757 7.18741 32.0608 15.1549 32.978C16.3305 33.1134 17.4701 32.6122 18.3069 31.7732C19.3524 30.725 19.3524 29.0254 18.3069 27.9772C17.4701 27.1382 16.7879 25.8866 17.419 24.8829C19.9417 20.8707 33 30.0848 33 17.0418C33 8.18215 25.8366 1 17 1C8.16344 1 1 8.18215 1 17.0418Z" stroke="white" stroke-width="2"></path>
  <circle cx="25.7999" cy="16.2" r="2.4" stroke="white" stroke-width="2"></circle>
  <circle cx="8.1998" cy="16.2" r="2.4" stroke="white" stroke-width="2"></circle>
  <path d="M15.5363 8.99961C15.5363 10.3251 14.4618 11.3996 13.1363 11.3996C11.8108 11.3996 10.7363 10.3251 10.7363 8.99961C10.7363 7.67413 11.8108 6.59961 13.1363 6.59961C14.4618 6.59961 15.5363 7.67413 15.5363 8.99961Z" stroke="white" stroke-width="2"></path>
  <path d="M23.4001 9.0001C23.4001 10.3256 22.3256 11.4001 21.0001 11.4001C19.6746 11.4001 18.6001 10.3256 18.6001 9.0001C18.6001 7.67461 19.6746 6.6001 21.0001 6.6001C22.3256 6.6001 23.4001 7.67461 23.4001 9.0001Z" stroke="white" stroke-width="2"></path>
</svg>
