<?xml version="1.0" encoding="UTF-8"?>
<svg xmlns="http://www.w3.org/2000/svg" width="31" height="31" viewBox="0 0 31 31" fill="none">
  <path d="M9.39494 25.1667C10.6594 25.1667 11.6844 26.2486 11.6844 27.5833C11.6844 28.918 10.6594 30 9.39494 30C8.1305 30 7.10547 28.918 7.10547 27.5833C7.10547 26.2486 8.1305 25.1667 9.39494 25.1667Z" stroke="white" stroke-width="2"></path>
  <path d="M23.1313 25.1668C24.3957 25.1668 25.4207 26.2488 25.4207 27.5835C25.4207 28.9181 24.3957 30.0001 23.1313 30.0001C21.8668 30.0001 20.8418 28.9181 20.8418 27.5835C20.8418 26.2488 21.8668 25.1668 23.1313 25.1668Z" stroke="white" stroke-width="2"></path>
  <path d="M1.39869 1.14796L1.74661 0.210435H1.74661L1.39869 1.14796ZM1.34793 0.0624778C0.830146 -0.129676 0.254632 0.134295 0.0624778 0.652075C-0.129676 1.16985 0.134295 1.74537 0.652075 1.93752L1.34793 0.0624778ZM4.94681 3.13147L5.78625 2.58802L5.78625 2.58802L4.94681 3.13147ZM6.93388 19.6666L6.18993 20.3348H6.18993L6.93388 19.6666ZM29.4776 12.0889L30.4591 12.2805L30.4602 12.2747L29.4776 12.0889ZM28.7149 15.9954L29.6963 16.187L28.7149 15.9954ZM29.5948 6.95641L28.7866 7.54539L29.5948 6.95641ZM27.1513 20.4145L26.4992 19.6564H26.4992L27.1513 20.4145ZM6.51496 11.8911V7.50624H4.51496V11.8911H6.51496ZM1.74661 0.210435L1.34793 0.0624778L0.652075 1.93752L1.05076 2.08548L1.74661 0.210435ZM14.6414 22.1389H22.7353V20.1389H14.6414V22.1389ZM6.51496 7.50624C6.51496 6.36125 6.51619 5.42701 6.43873 4.67166C6.35925 3.89664 6.18954 3.21098 5.78625 2.58802L4.10736 3.67492C4.27223 3.92958 4.3866 4.26558 4.44916 4.87568C4.51374 5.50546 4.51496 6.3198 4.51496 7.50624H6.51496ZM1.05076 2.08548C2.06703 2.46263 2.74424 2.71581 3.24477 2.97505C3.71644 3.21934 3.94792 3.42863 4.10736 3.67492L5.78625 2.58802C5.37753 1.95669 4.82828 1.54286 4.16458 1.19912C3.52976 0.870322 2.71699 0.570553 1.74661 0.210435L1.05076 2.08548ZM4.51496 11.8911C4.51496 14.2376 4.53647 15.901 4.74143 17.1641C4.95729 18.4944 5.38399 19.4376 6.18993 20.3348L7.67784 18.9984C7.16138 18.4234 6.87861 17.8483 6.71561 16.8438C6.54171 15.7721 6.51496 14.2838 6.51496 11.8911H4.51496ZM14.6414 20.1389C12.4817 20.1389 10.9737 20.1363 9.8353 19.9659C8.73767 19.8016 8.12835 19.5 7.67784 18.9984L6.18993 20.3348C7.06182 21.3055 8.17789 21.7401 9.53923 21.9438C10.8598 22.1415 12.5444 22.1389 14.6414 22.1389V20.1389ZM5.51496 7.02667H24.0303V5.02667H5.51496V7.02667ZM28.4962 11.8972L27.7334 15.8037L29.6963 16.187L30.4591 12.2805L28.4962 11.8972ZM24.0303 7.02667C25.3357 7.02667 26.4917 7.02815 27.4057 7.13599C27.8598 7.18958 28.2056 7.26459 28.4534 7.35649C28.7061 7.45022 28.7767 7.53183 28.7866 7.54539L30.4029 6.36743C30.074 5.91612 29.6012 5.64907 29.1489 5.48131C28.6916 5.31172 28.1709 5.21241 27.64 5.14977C26.5841 5.02518 25.2967 5.02667 24.0303 5.02667V7.02667ZM30.4602 12.2747C30.72 10.9011 30.9349 9.77533 30.9873 8.87899C31.0407 7.96557 30.9407 7.10532 30.4029 6.36743L28.7866 7.54539C28.9264 7.73724 29.0328 8.04232 28.9907 8.76224C28.9476 9.49925 28.7651 10.4748 28.4951 11.9031L30.4602 12.2747ZM22.7353 22.1389C23.9002 22.1389 24.8694 22.1408 25.6491 22.0401C26.4603 21.9353 27.1813 21.7078 27.8034 21.1726L26.4992 19.6564C26.2792 19.8456 25.9835 19.9803 25.3929 20.0566C24.7708 20.1369 23.953 20.1389 22.7353 20.1389V22.1389ZM27.7334 15.8037C27.4883 17.0589 27.3195 17.915 27.1159 18.5529C26.9193 19.1687 26.7247 19.4625 26.4992 19.6564L27.8034 21.1726C28.42 20.6422 28.7667 19.958 29.0211 19.1611C29.2685 18.3863 29.4604 17.395 29.6963 16.187L27.7334 15.8037Z" fill="white"></path>
  <path d="M12.4473 10.6667L13.2534 15.69" stroke="white" stroke-width="2" stroke-linecap="round"></path>
  <path d="M21.6484 10.6667L20.8423 15.69" stroke="white" stroke-width="2" stroke-linecap="round"></path>
</svg>
