<svg width="14" height="14" viewBox="0 0 14 14" fill="none" xmlns="http://www.w3.org/2000/svg">
<path d="M0.692796 11.893C0.302271 12.2835 0.302271 12.9167 0.692796 13.3072C1.08332 13.6977 1.71648 13.6977 2.10701 13.3072L0.692796 11.893ZM13.5999 1.4001C13.5999 0.847813 13.1522 0.400098 12.5999 0.400098L3.5999 0.400098C3.04762 0.400097 2.5999 0.847813 2.5999 1.4001C2.5999 1.95238 3.04762 2.4001 3.5999 2.4001L11.5999 2.4001L11.5999 10.4001C11.5999 10.9524 12.0476 11.4001 12.5999 11.4001C13.1522 11.4001 13.5999 10.9524 13.5999 10.4001L13.5999 1.4001ZM2.10701 13.3072L13.307 2.1072L11.8928 0.692991L0.692796 11.893L2.10701 13.3072Z" fill="white"/>
</svg>
