<svg width="19" height="15" viewBox="0 0 19 15" fill="none" xmlns="http://www.w3.org/2000/svg">
<path d="M1 7.5C1 4.43587 1 2.90381 1.99584 1.9519C2.99167 1 4.59445 1 7.8 1H11.2C14.4056 1 16.0083 1 17.0042 1.9519C18 2.90381 18 4.43587 18 7.5C18 10.5641 18 12.0962 17.0042 13.0481C16.0083 14 14.4056 14 11.2 14H7.8C4.59445 14 2.99167 14 1.99584 13.0481C1 12.0962 1 10.5641 1 7.5Z" stroke="white" stroke-width="1.5"/>
<path d="M4.3999 4.25L6.23496 5.71175C7.7961 6.95531 8.57668 7.57709 9.4999 7.57709C10.4231 7.57709 11.2037 6.95531 12.7648 5.71175L14.5999 4.25" stroke="white" stroke-width="1.5" stroke-linecap="round"/>
</svg>
