<svg width="188" height="43" viewBox="0 0 188 43" fill="none" xmlns="http://www.w3.org/2000/svg">
<path d="M140.072 22.0738H144.992V23.2389H140.072V22.0738ZM58.2413 15.0072L57.8015 26.7018V26.9049C57.8015 27.8949 58.0866 28.0992 59.6294 28.2109V28.7528C58.5064 28.6643 58.0644 28.6416 57.4488 28.6416C56.8316 28.6416 56.3913 28.6643 55.2461 28.7528V28.2109C56.7872 28.0992 57.0085 27.9182 57.0523 26.7018L57.5148 15.6392V15.506C57.5148 14.4677 57.2059 14.243 55.6876 14.1534V13.5889C56.5449 13.657 56.8754 13.6797 57.4926 13.6797C58.1918 13.6861 58.8908 13.649 59.5856 13.5685L63.6804 24.9675L67.8419 13.5685C68.8346 13.657 69.2965 13.6797 69.9576 13.6797C70.506 13.6797 70.8598 13.657 71.6961 13.5889V14.1534C70.1993 14.243 69.8671 14.4677 69.8671 15.4815V15.6392L70.11 26.7018C70.1339 27.9182 70.3307 28.0974 71.9168 28.2109V28.7528C70.5299 28.6177 70.0002 28.5712 69.164 28.5712C68.326 28.5712 67.7975 28.6154 66.4105 28.7528V28.2109C67.9073 28.1219 68.2378 27.8728 68.2378 26.8159V26.7047L68.0415 15.0328L64.4063 25.0804L64.1429 25.8247L63.8346 26.657L63.5467 27.516L63.305 28.2587H62.9744L62.7332 27.5381L62.4238 26.657L62.116 25.7793L61.8515 24.9913L58.2413 15.0072ZM74.7772 22.2845C74.9979 19.694 75.8336 18.3665 77.2433 18.3665C78.6752 18.3665 79.4017 19.6277 79.5331 22.2845H74.7772ZM77.641 28.1871C75.6368 28.1871 74.7544 26.6099 74.7345 23.0952H81.2972C81.2523 19.6259 79.8647 17.7781 77.2655 17.7781C74.6247 17.7781 72.9721 19.964 72.9721 23.4339C72.9721 26.9032 74.6253 28.9303 77.4646 28.9303C79.623 28.9303 81.0332 27.555 81.3177 25.2352H80.4359C80.1719 27.1499 79.2031 28.1871 77.641 28.1871ZM82.6074 18.6115V18.207C83.8618 18.0947 84.6116 17.9597 85.5138 17.6884C85.6242 18.523 85.668 18.8821 85.7118 19.559V19.8075C86.1976 18.523 87.1425 17.7787 88.2888 17.7787C89.3891 17.7787 90.2049 18.523 90.2049 19.6055C90.2049 20.2591 89.8305 20.6863 89.2799 20.6863C88.7735 20.6863 88.3776 20.3703 88.3776 19.921C88.3776 19.8762 88.4003 19.7877 88.4203 19.694L88.4641 19.4699V19.2651C88.4641 18.9496 88.1995 18.725 87.803 18.725C86.6595 18.725 85.9331 20.1439 85.9331 22.3747V27.0824C85.9331 28.0532 86.1521 28.233 87.4964 28.3V28.751C86.2835 28.6399 85.8216 28.6148 85.0507 28.6148C84.2583 28.6148 83.7963 28.6399 82.5857 28.751V28.3C83.9277 28.233 84.1701 28.0532 84.1701 27.0824V19.7179C84.149 18.7483 84.0375 18.6371 82.8941 18.6132L82.6074 18.6115ZM98.6295 17.5773V21.2957H98.1437C97.7472 19.3337 96.9331 18.388 95.5905 18.388C93.9373 18.388 92.9697 20.2143 92.9697 23.4357C92.9697 26.5889 93.8281 28.1888 95.5234 28.1888C96.8887 28.1888 97.7034 27.1983 97.9679 25.2166H98.8702C98.5835 27.6278 97.3285 28.9338 95.3476 28.9338C92.7927 28.9338 91.0542 26.7251 91.0542 23.4374C91.0542 20.0787 92.8149 17.7816 95.4136 17.7816C96.3608 17.7816 96.9553 18.0301 97.6613 18.7285L98.2541 17.579H98.6301V17.5773H98.6295ZM102.245 22.2845C102.466 19.694 103.301 18.3665 104.712 18.3665C106.143 18.3665 106.869 19.6277 107 22.2845H102.245ZM105.108 28.1871C103.104 28.1871 102.224 26.6099 102.202 23.0952H108.763C108.719 19.6259 107.331 17.7781 104.734 17.7781C102.09 17.7781 100.438 19.964 100.438 23.4339C100.438 26.9032 102.09 28.9303 104.932 28.9303C107.09 28.9303 108.5 27.555 108.785 25.2352H107.904C107.64 27.1499 106.671 28.1871 105.108 28.1871ZM114.862 28.3238C113.276 28.3238 112.44 26.6326 112.44 23.413C112.44 20.148 113.21 18.5475 114.796 18.5475C116.427 18.5475 117.263 20.2591 117.263 23.573C117.263 26.7012 116.448 28.3238 114.862 28.3238ZM119.001 26.4073V13.4009C117.901 13.7024 116.911 13.881 115.678 14.0161V14.4002C117.065 14.4002 117.241 14.5579 117.241 15.7289V19.6707C116.427 18.3199 115.788 17.9131 114.598 17.9131C112.242 17.9131 110.59 20.1881 110.59 23.4322C110.59 26.6768 112.262 28.9501 114.664 28.9501C115.919 28.9501 116.778 28.3646 117.394 27.104C117.482 27.9601 117.482 28.0497 117.703 28.9047C118.605 28.6113 118.98 28.5217 120.28 28.3646L120.61 28.3203V27.9374C119.134 27.8926 119.001 27.7814 119.001 26.4073ZM123.25 22.2845C123.471 19.694 124.307 18.3665 125.717 18.3665C127.148 18.3665 127.874 19.6277 128.006 22.2845H123.25ZM126.114 28.1871C124.108 28.1871 123.229 26.6099 123.206 23.0952H129.768C129.724 19.6259 128.337 17.7781 125.739 17.7781C123.095 17.7781 121.444 19.964 121.444 23.4339C121.444 26.9032 123.095 28.9303 125.937 28.9303C128.095 28.9303 129.504 27.555 129.789 25.2352H128.908C128.646 27.1499 127.675 28.1871 126.114 28.1871ZM131.638 28.9536V25.1898L132.123 25.1683C132.518 27.2192 133.444 28.2109 134.986 28.2109C136.284 28.2109 137.254 27.3315 137.254 26.185C137.254 25.4191 136.836 24.9017 135.755 24.4047L134.919 24.0206L133.906 23.548C132.297 22.7826 131.791 22.1512 131.791 20.844C131.791 19.0637 133.155 17.8491 135.095 17.8491C135.954 17.8491 136.594 18.0516 137.341 18.5673L137.714 17.6442H138.111V21.1362H137.604C137.404 19.3332 136.679 18.4788 135.292 18.4788C134.125 18.4788 133.22 19.2901 133.22 20.3487C133.22 21.2491 133.551 21.5436 135.555 22.4439L136.481 22.8507C138.152 23.5916 138.749 24.3145 138.749 25.6443C138.749 27.537 137.273 28.8866 135.205 28.8866C134.191 28.8866 133.398 28.616 132.562 27.9409L132.031 28.9536H131.638H131.638ZM150.996 21.1804C152.163 21.1804 152.823 21.3841 153.33 21.9009C153.837 22.4212 154.125 23.3891 154.125 24.4687C154.125 26.7216 153.022 27.9845 151.063 27.9845H150.27C149.102 27.9845 148.905 27.8029 148.905 26.8118V21.1787L150.996 21.1804ZM148.903 14.3536H150.776C152.626 14.3536 153.44 15.279 153.44 17.373C153.44 18.409 153.198 19.1539 152.714 19.7376C152.229 20.3028 151.635 20.4809 150.403 20.4809H148.905V14.353H148.903V14.3536ZM155.399 17.3276C155.399 16.1561 154.915 15.1213 154.078 14.4659C153.33 13.9031 152.473 13.6564 151.039 13.6564H145.248V14.2192C146.834 14.31 147.053 14.4898 147.053 15.7062V26.632C147.053 27.8489 146.876 28.0049 145.248 28.1423V28.6841H150.819C152.448 28.6841 153.33 28.4798 154.255 27.8943C155.356 27.1738 156.082 25.7991 156.082 24.3826C156.082 23.1633 155.575 22.0604 154.717 21.387C154.255 21.0268 153.77 20.8213 152.977 20.6654C154.564 20.0543 155.399 18.9048 155.399 17.3276ZM159.677 22.2845C159.898 19.694 160.735 18.3665 162.145 18.3665C163.575 18.3665 164.303 19.6277 164.433 22.2845H159.677ZM162.541 28.1871C160.537 28.1871 159.655 26.6099 159.634 23.0952H166.197C166.153 19.6259 164.765 17.7781 162.166 17.7781C159.523 17.7781 157.871 19.964 157.871 23.4339C157.871 26.9032 159.523 28.9303 162.363 28.9303C164.521 28.9303 165.931 27.555 166.217 25.2352H165.336C165.073 27.1499 164.105 28.1871 162.541 28.1871ZM167.362 18.7011V18.3199C168.639 18.1383 169.388 17.9597 170.267 17.6436C170.379 18.1639 170.445 18.7477 170.488 19.6038C171.282 18.3863 172.183 17.8473 173.462 17.8473C174.784 17.8473 175.927 18.5428 176.369 19.648C176.591 20.1899 176.7 20.8196 176.7 21.6745V27.0819C176.7 28.0515 176.921 28.2313 178.263 28.2982V28.7493C177.096 28.6358 176.656 28.6142 175.863 28.6142C175.047 28.6142 174.607 28.6358 173.461 28.7493V28.2982C174.65 28.2552 174.937 28.0288 174.937 27.1278V21.6076C174.937 19.648 174.365 18.8583 172.956 18.8583C171.457 18.8583 170.665 19.8284 170.665 21.6745V27.1278C170.665 28.0288 170.953 28.2552 172.099 28.2982V28.7493C170.953 28.6358 170.513 28.6142 169.72 28.6142C168.949 28.6142 168.485 28.6358 167.34 28.7493V28.2982C168.682 28.2313 168.904 28.0515 168.904 27.0819V19.7842C168.882 18.8583 168.75 18.725 167.649 18.725C167.581 18.725 167.472 18.7011 167.362 18.7011ZM179.118 28.6841L185.086 18.6354H182.377C180.947 18.6354 180.592 18.9496 179.8 20.9779H179.362L179.869 18.0493H187.444L181.453 28.0974H184.029C185.528 28.0974 186.143 27.4904 186.804 25.4389H187.267L186.695 28.6841H179.118Z" fill="#9F9F9F"/>
<path d="M39.0925 32.1659C41.0171 28.9655 42.0314 25.3004 42.0261 21.5658C42.0261 10.1846 32.7994 0.958496 21.4186 0.958496C10.0375 0.958496 0.811544 10.1849 0.811544 21.5658C0.806252 25.3005 1.82087 28.9657 3.74592 32.1659L3.67091 32.226L3.76048 32.1913C7.36734 38.1721 13.9254 42.1731 21.4186 42.1731C28.9123 42.1731 35.4696 38.1721 39.076 32.1913L39.1656 32.226L39.0925 32.1659ZM39.4944 21.5658C39.4979 24.7216 38.6706 27.8228 37.0955 30.5575L24.3474 20.2899L21.7329 3.49919C31.5697 3.66712 39.4944 11.6885 39.4944 21.5658ZM3.34512 21.5658C3.34512 11.6889 11.269 3.6675 21.1059 3.49919L18.4913 20.2899L5.74323 30.5575C4.1687 27.8226 3.34163 24.7215 3.34512 21.5658ZM21.4194 39.6402C15.0058 39.6402 9.37622 36.2964 6.16829 31.2602L21.4194 25.36L36.6705 31.2606C33.4622 36.2964 27.8337 39.6402 21.4194 39.6402Z" fill="#9F9F9F"/>
</svg>
