<svg width="110" height="40" viewBox="0 0 110 40" fill="none" xmlns="http://www.w3.org/2000/svg">
<path d="M20.04 39.7247C9.13269 39.7247 0.258789 30.855 0.258789 19.9538C0.258789 9.05144 9.13269 0.182129 20.04 0.182129C30.9469 0.182129 39.8204 9.0518 39.8204 19.9538C39.8204 30.855 30.9469 39.7247 20.04 39.7247Z" fill="#898989"/>
<path d="M20.0401 0.363303C30.8638 0.363303 39.6388 9.13379 39.6388 19.9533C39.6388 30.7728 30.8638 39.5429 20.0401 39.5429C9.21576 39.5429 0.440773 30.7725 0.440773 19.9533C0.440773 9.13415 9.21576 0.363303 20.0401 0.363303ZM20.0401 0C9.0325 0 0.0771484 8.95105 0.0771484 19.9533C0.0771484 30.9559 9.0325 39.9062 20.0401 39.9062C31.0474 39.9062 40.0024 30.9548 40.0024 19.9533C40.0024 8.95105 31.0474 0 20.0401 0Z" fill="#A5A5A5"/>
<path d="M109.444 12.2867C109.664 12.0302 109.811 11.7377 109.811 11.3712C109.814 11.0073 109.683 10.655 109.444 10.3808C109.186 10.1236 108.858 9.97681 108.489 9.97681C108.123 9.97681 107.83 10.1239 107.535 10.3808C107.28 10.6377 107.168 10.9675 107.168 11.3712C107.168 11.7377 107.28 12.0302 107.535 12.2867C107.83 12.5435 108.123 12.6533 108.489 12.6533C108.858 12.6533 109.186 12.5435 109.444 12.2867ZM109.518 25.7794V13.9368H107.536L107.573 25.7794H109.518ZM104.93 14.5239L104.601 14.3768C103.72 13.8631 102.655 13.6069 101.371 13.6069C99.9764 13.6069 98.839 13.9364 97.995 14.5966C97.5547 14.9268 97.2609 15.2563 97.0409 15.697C96.8212 16.0999 96.71 16.5032 96.71 16.9795C96.71 17.7864 97.0779 18.4461 97.739 19.0325C98.3619 19.5829 99.279 20.0229 100.49 20.3891C101.517 20.7189 102.215 21.0492 102.655 21.3794C103.022 21.7464 103.243 22.1493 103.243 22.6622C103.243 23.2123 102.949 23.6522 102.435 24.0192C101.92 24.3127 101.186 24.4958 100.27 24.4958C99.2782 24.4958 98.2885 24.239 97.2609 23.7616L97.0038 23.5792L96.1598 25.1185L96.4543 25.2653C97.5914 25.8153 98.8397 26.0715 100.197 26.0715C101.665 26.0715 102.876 25.7783 103.83 25.1185C104.307 24.825 104.637 24.4224 104.894 24.0195C105.15 23.5429 105.261 23.0288 105.261 22.5158V22.478C105.261 21.5985 104.894 20.8283 104.197 20.2056C103.61 19.693 102.656 19.2523 101.408 18.8861C100.453 18.5547 99.7568 18.2252 99.3528 17.9687C98.9124 17.6381 98.7292 17.2723 98.7292 16.869C98.7292 16.392 98.9124 16.0262 99.3172 15.6963C99.7568 15.4024 100.343 15.2189 101.114 15.2189C102.179 15.2189 103.059 15.4024 103.757 15.8423L104.014 16.0258L104.93 14.5239ZM92.9679 15.4035C91.6101 14.2304 89.9225 13.6073 87.9764 13.6073C86.0685 13.6073 84.4907 14.1933 83.2068 15.3301C81.7748 16.614 81.0417 18.3731 81.0417 20.683V29.8854H82.949V23.9462C83.5366 24.6055 84.2715 25.1193 85.1514 25.4866C86.0321 25.8891 86.9859 26.0722 88.0142 26.0722C89.9589 26.0722 91.6101 25.4866 92.9679 24.2386C94.3628 23.0288 95.0587 21.5629 95.0587 19.839C95.0587 18.0795 94.3628 16.6136 92.9679 15.4035ZM87.9764 15.2563C89.4084 15.2563 90.6552 15.697 91.609 16.5762C92.6006 17.4561 93.1144 18.5555 93.1144 19.8768C93.1144 21.1222 92.6734 22.1489 91.793 23.0288C90.8392 23.9454 89.5549 24.4224 88.0139 24.4224C86.4714 24.4224 85.2234 23.9458 84.2333 23.0288C83.3166 22.1129 82.8766 21.0862 82.8766 19.8768C82.8766 18.6659 83.3169 17.6033 84.2333 16.7226C85.1882 15.77 86.4361 15.2563 87.9764 15.2563ZM77.9953 15.9906C76.7121 14.3768 74.8768 13.6069 72.4177 13.6069C70.5828 13.6069 69.0039 14.1203 67.6469 15.2196C66.1797 16.3564 65.4459 17.8968 65.4459 19.8031C65.4459 20.8661 65.739 21.9295 66.3626 22.9191C66.9138 23.872 67.7574 24.6426 68.8952 25.2286C70.0323 25.779 71.2431 26.0351 72.5642 26.0351C73.8122 26.0351 74.9859 25.779 76.1244 25.2286C77.2608 24.6426 78.1051 23.872 78.6556 22.9191L79.0229 22.2957H76.895C76.4539 22.9191 75.8292 23.4328 75.0234 23.8357C74.2161 24.2386 73.3354 24.4224 72.4911 24.4224C71.317 24.4224 70.3261 24.1282 69.445 23.5418C68.5643 22.9187 67.9778 22.1489 67.6105 21.1222C68.8207 20.6455 70.0323 20.3887 71.3541 20.3887L73.3354 20.6081L76.4175 20.902C77.3713 20.902 78.18 20.7553 78.9127 20.5358C79.2069 20.4254 79.3898 20.2786 79.464 20.0951C79.5734 19.9487 79.5734 19.693 79.5011 19.3983C79.2796 18.0795 78.8029 16.9435 77.9953 15.9906ZM77.4826 18.9976L77.5189 19.0703L76.4543 19.2167L74.1427 18.9972L70.9133 18.7397H70.3628C69.3352 18.8131 68.3814 18.9972 67.4636 19.3264C67.6098 17.9695 68.2712 16.9057 69.3723 16.1366C70.289 15.5491 71.3173 15.2196 72.4177 15.2196C74.1416 15.2196 75.4634 15.7697 76.4543 16.8697C76.9684 17.5302 77.3346 18.2263 77.4826 18.9976ZM56.8949 13.6069C55.0233 13.6069 53.4088 14.1929 52.1245 15.3297C50.6933 16.6136 49.9958 18.3727 49.9958 20.6822L49.9595 29.8847H51.9412L51.9041 23.9454C52.4914 24.6052 53.2252 25.1185 54.0695 25.4858C54.9866 25.8887 55.9411 26.0711 56.9683 26.0711C58.9134 26.0711 60.5646 25.4858 61.9227 24.2383C63.3169 23.0285 63.9772 21.5618 63.9772 19.8383C63.9772 18.0785 63.3169 16.6125 61.9587 15.4024C60.5646 14.23 58.9134 13.6069 56.8949 13.6069ZM53.1521 16.723C54.143 15.77 55.3542 15.2563 56.8949 15.2563C58.3632 15.2563 59.5741 15.697 60.5639 16.5762C61.5558 17.4561 62.0318 18.5555 62.0318 19.8768C62.0318 21.1222 61.5922 22.1489 60.7471 23.0288C59.7941 23.9454 58.5461 24.4224 56.9316 24.4224C55.4269 24.4224 54.143 23.9458 53.1517 23.0288C52.271 22.1129 51.8307 21.0862 51.8307 19.8768C51.831 18.6663 52.271 17.6036 53.1521 16.723Z" fill="#A5A5A5"/>
<path d="M31.247 5.10933C31.0785 4.98191 30.9187 4.84356 30.7684 4.69516C27.6295 2.48309 23.8812 1.29818 20.0401 1.30373C9.73602 1.30373 1.38283 9.65315 1.38283 19.9528C1.37713 23.9663 2.67236 27.8738 5.07471 31.0906C11.3181 29.2486 16.7652 26.0439 21.4335 21.4122C26.0959 16.8026 29.3721 11.3469 31.247 5.10933Z" fill="#A5A5A5"/>
<path d="M20.0402 38.6022C30.3435 38.6022 38.6967 30.2517 38.6967 19.9528C38.6967 16.3071 37.6495 12.9077 35.8408 10.0357C35.7933 9.98838 35.7507 9.93642 35.7136 9.88062C36.0932 11.1323 36.2854 12.4332 36.2841 13.7411C36.2841 15.8573 35.7946 17.8602 34.8332 19.7356C33.8824 21.5166 32.5459 23.0632 30.921 24.2627C29.617 25.2236 28.052 26.0381 26.2095 26.7059C24.743 27.2421 22.8354 27.7965 20.4722 28.3331L13.6579 29.8652C10.7609 30.5286 8.12244 31.2384 5.77197 31.9654C9.19404 36.0246 14.3153 38.6022 20.0402 38.6022Z" fill="#A5A5A5"/>
</svg>
