<svg width="109" height="44" viewBox="0 0 109 44" fill="none" xmlns="http://www.w3.org/2000/svg">
<path d="M54.9135 4.86686C55.65 4.90034 56.3535 5.17385 56.9107 5.64333C57.67 6.34215 57.8691 7.50742 57.5097 8.43975C56.1126 11.2356 52.7901 13.1031 50.5197 13.7209C49.1614 14.0315 47.4443 14.0315 46.2058 13.5656C45.6062 13.915 45.1004 15.0443 44.3683 14.575C43.3087 13.7704 44.226 12.5112 43.6142 11.6177C43.4881 11.4337 43.1703 11.4202 43.0106 11.1191C42.1715 9.3327 43.2103 7.6239 44.3683 6.26507C46.299 4.17085 51.8381 1.83749 54.9135 4.86686ZM48.4826 6.26451C47.4038 6.45863 46.1856 6.91494 45.527 7.66272C44.8678 8.40993 44.4488 9.13858 44.8481 9.91505C46.2463 8.90564 46.9252 7.50743 48.4831 6.65331C48.4826 6.49745 48.7222 6.38098 48.4826 6.26451ZM54.9939 6.65331C52.2374 6.4198 50.1603 8.43976 48.203 10.3809C48.0832 10.6915 47.3644 11.0409 47.9235 11.3903C50.5602 11.6233 53.0766 10.8862 54.9939 9.17684C55.5536 8.67213 55.9517 8.01213 55.6734 7.31274C55.5536 7.04154 55.2717 6.76978 54.9939 6.65331ZM78.8789 18.2255C80.1574 21.2549 81.2355 26.0308 78.8789 28.9437C78.24 29.6425 77.1219 30.2867 76.4031 29.759C73.7664 27.7013 72.6488 24.7496 71.011 22.1085C70.7714 21.992 70.7714 22.3032 70.6516 22.4196C70.0526 25.099 71.1707 28.5943 69.2939 30.6907C68.5751 30.8072 67.9026 30.4477 67.6561 29.759C66.737 27.0019 67.6949 24.1279 67.9345 21.3708C68.4941 19.9726 68.7337 18.342 69.9722 17.2932C71.9694 18.0697 72.9278 20.2449 74.0853 21.8373C74.925 23.0408 75.6033 24.4002 76.5617 25.4873C77.4003 25.1378 76.9876 24.0722 76.9616 23.429C76.6409 20.9049 75.9222 18.575 75.2427 16.1673C75.2039 15.5462 74.8446 14.4974 75.5223 14.1091C77.3221 14.8862 78.0797 16.7109 78.8789 18.2255V18.2255ZM66.8163 17.2932C66.8163 17.8761 66.3371 18.6042 65.9367 18.6914C62.1025 19.2738 57.8286 18.9244 54.234 20.0891C54.1142 20.5161 54.6334 20.5938 54.9129 20.7103C57.9877 21.1761 61.224 21.2926 64.2201 22.0308C65.8041 22.4219 66.3777 24.2449 66.4975 25.759C66.571 26.953 66.0987 28.3996 64.8996 29.2154C61.9445 31.0407 57.431 30.9625 54.4343 29.2937C53.289 28.6691 52.1975 27.6631 52.1176 26.4201C52.1245 25.4332 52.5574 24.6562 53.2762 24.2843C56.1525 23.1578 59.7071 23.7801 62.1841 25.216C62.3427 25.9931 61.4781 25.9509 61.0643 26.226C58.3078 27.7795 56.2313 24.4795 53.675 25.6819C53.3156 25.9149 53.0557 26.5647 53.4753 26.7696C56.6306 28.1289 60.1458 27.1578 63.2612 26.3037C63.6206 26.1872 64.0604 25.8378 64.0998 25.4884C63.98 24.2455 62.5424 23.9743 61.6233 23.6248C58.9073 22.9648 55.9118 22.9648 52.9955 22.6931C52.4365 22.5766 51.7241 22.1979 51.558 21.7613C51.2385 20.8295 51.2385 19.5478 51.9573 18.7713C55.6716 15.5867 61.3033 15.859 66.0165 16.7131C66.3366 16.8273 66.696 16.9438 66.8163 17.2932V17.2932ZM49.3617 18.7691C49.7211 22.4967 49.9207 25.9537 49.8409 29.8754C49.761 30.3796 49.162 30.4966 48.7627 30.6907C48.1237 30.8072 47.2979 30.675 47.045 30.3413C46.1265 28.9037 46.446 26.9631 46.3661 25.2155C46.4859 22.459 46.446 19.4685 47.2452 16.905C47.398 16.5325 47.8442 16.2062 48.2036 16.4385C49.162 16.905 49.3217 17.8373 49.3617 18.7691V18.7691ZM93.7391 18.2255C93.9313 18.5395 94.1321 19.0245 93.7391 19.235C91.9416 20.0114 89.5057 19.662 87.428 19.895C86.869 20.3608 86.4291 21.1373 86.6282 21.8367C86.829 21.9532 87.0078 22.1304 87.2283 22.1079C88.5056 22.1861 90.4235 21.5256 91.2633 22.6903C91.4682 23.0369 91.2355 24.331 90.6643 24.3602C89.1058 24.5555 86.5431 24.1701 85.7902 24.5555C84.8318 25.1767 84.9111 26.3802 84.5517 27.3519C85.2311 27.779 85.9424 27.3418 86.748 27.2349C88.2272 27.0019 89.8651 26.5749 91.342 26.8855C91.6215 27.3902 92.0214 27.9343 91.7413 28.5554C89.2232 30.4972 85.9754 32.4873 82.5151 31.0795C81.2164 30.5135 80.6377 28.5943 81.0775 26.9642C81.3565 25.799 82.5944 24.6731 81.8363 23.4302C81.7165 22.8861 82.0365 22.4207 82.5157 22.3043C83.8335 22.3043 83.5534 20.7119 84.2328 19.9737C83.4741 19.1584 81.5573 19.1973 81.757 17.5661C82.676 17.1002 83.7947 17.2555 84.8318 17.1002C87.1884 16.6338 89.8246 16.362 92.2228 16.6338C92.7003 16.7272 93.3398 17.6432 93.7391 18.2255ZM36.6995 9.37152C40.3855 12.3007 45.1676 17.2938 44.5686 23.0408C43.8492 27.5849 38.8964 31.0019 34.7023 32.0895C30.628 33.2542 25.5154 33.1377 21.3607 32.206C21.0812 32.9442 20.8016 33.8366 19.9231 34.1477C19.3641 34.3418 18.6447 34.2254 18.2054 33.876C16.9675 32.7495 17.9658 30.5748 16.1683 29.8766C12.653 28.4395 8.85826 25.6043 7.06129 22.1096C6.82169 21.4108 7.10122 20.7119 7.54048 20.1684C10.297 18.0326 13.7717 17.1784 17.247 16.5179C17.4467 16.5955 17.3668 16.3238 17.5266 16.2461C17.7262 13.9161 17.8061 11.5468 18.5648 9.44973C18.7379 9.15546 19.1638 9.0615 19.4439 9.25561C21.6408 10.8862 20.602 13.955 21.5609 16.1679C25.755 16.362 29.9491 16.5561 33.2641 18.8479C34.3828 19.7408 34.6554 21.4462 34.3024 22.4207C33.9499 23.3936 32.7849 24.0907 31.7062 24.1673C30.9868 24.1673 29.6291 24.2353 29.709 23.7019C29.7888 23.168 32.1524 22.2942 31.4266 21.5655C30.3832 20.5184 25.1624 19.8955 21.9267 19.5073C21.5274 19.4296 21.161 19.5461 21.161 19.9732C21.0812 22.9243 20.8416 26.1861 21.3607 29.0219C21.4006 29.2166 21.6402 29.4495 21.8405 29.4872C27.552 30.3807 33.5836 29.8754 38.0572 26.6913C40.1343 25.0613 40.8137 22.7685 40.4538 20.2449C38.6562 13.2162 31.1072 8.98272 24.9159 6.26451C18.8849 3.70159 12.2138 2.38102 5.06407 2.731C3.9257 2.81202 2.12178 3.19407 2.10847 3.58568C2.09516 3.97729 4.15198 3.85407 3.90544 4.59509C3.65948 5.33555 1.56909 4.89611 0.949839 4.71156C0.330592 4.52701 0.39078 3.66276 0.550511 3.11923C2.10847 0.439842 6.45593 0.223218 8.41958 0.129253C19.2836 -0.143074 29.7894 3.87939 36.6995 9.37152V9.37152ZM17.1272 19.7791C14.3707 19.8179 11.4551 20.0896 8.89877 21.0214C8.37965 21.2155 7.74015 21.7591 8.13947 22.4196C9.17773 23.7784 10.6628 24.8942 12.054 25.6814C13.4453 26.4674 15.2898 27.4678 16.9675 27.7013C17.3668 25.1767 17.3668 22.6914 17.3269 20.0896C17.1666 20.012 17.3263 19.8567 17.1272 19.7791V19.7791ZM99.6897 16.245C99.5699 19.6232 96.3336 21.7208 96.3336 25.099C96.4534 25.2155 96.5344 25.3708 96.693 25.2943C99.2904 22.5367 101.846 18.6143 105.641 17.4496C106.641 17.372 107.544 18.2165 107.918 18.8479C109.237 21.4108 108.918 25.0225 107.08 27.3525C105.184 29.6397 101.887 31.9348 98.1335 31.546C96.5761 35.2742 95.4956 39.1965 94.8966 43.2741C94.5771 44.0894 93.819 43.3517 93.3398 43.1964C90.1047 40.7112 92.7611 34.132 92.9804 33.2925C93.1997 32.4552 94.0655 30.4803 94.6987 28.8266C93.1806 26.1866 94.139 23.0014 95.3769 20.555C96.3353 18.9238 97.6548 17.2927 99.2122 16.0503C99.4102 16.0509 99.5699 16.0897 99.6897 16.245V16.245ZM106.122 20.4391C105.643 20.3614 105.442 20.9832 105.044 21.0996C103.207 23.119 101.369 25.1384 100.45 27.546C101.689 27.7013 102.726 26.9249 103.806 26.4978C105.643 25.3713 106.801 23.5084 106.681 21.3719C106.601 21.0214 106.281 20.7496 106.122 20.4391Z" fill="#9F9F9F"/>
</svg>
